# xmcd
#
# Track frame offsets: 
#        150
#        15102
#        25058
#        37512
#        62774
#        78185
#        93272
#        109982
#        127534
#        143258
#        155640
#        182362
#        204350
#
# Disc length: 3108 seconds
#
# Revision: 1
# Processed by: cddbd v1.4PL0 Copyright (c) Steve Scherf et al.
# Submitted via: ExactAudioCopy v0.90b4
#
DISCID=810c220d
DTITLE=dr.soul and the chain of fools - Absoulution ... live.
DYEAR=2002
DGENRE=Soul
TTITLE0=Hold on I'm coming
TTITLE1=Sweet Soul Music
TTITLE2=Hard to handle
TTITLE3=Flip, Flop and Fly
TTITLE4=Expressway to your heart
TTITLE5=Stagger Lee
TTITLE6=Groove me
TTITLE7=She caught the Caty
TTITLE8=From the bottom
TTITLE9=Son of a Preacher Man
TTITLE10=Chain of Fools
TTITLE11=Funky Nassau
TTITLE12=Soul Man
EXTD=
EXTT0=
EXTT1=
EXTT2=
EXTT3=
EXTT4=
EXTT5=
EXTT6=
EXTT7=
EXTT8=
EXTT9=
EXTT10=
EXTT11=
EXTT12=
PLAYORDER=
